<?xml version="1.0" standalone="no"?>
<!DOCTYPE svg PUBLIC "-//W3C//DTD SVG 1.1//EN" "http://www.w3.org/Graphics/SVG/1.1/DTD/svg11.dtd" >
<svg xmlns="http://www.w3.org/2000/svg" xmlns:xlink="http://www.w3.org/1999/xlink" version="1.1">
<metadata></metadata>
<defs>
<font id="cerebri_sans_promedium" horiz-adv-x="1198" >
<font-face units-per-em="2048" ascent="1536" descent="-512" />
<missing-glyph horiz-adv-x="532" />
<glyph unicode="&#xfb01;" horiz-adv-x="1263" d="M45 840v172h207v145q0 201 120.5 300t327.5 99q170 0 276 -79t144 -220l-217 -57q-19 91 -70 133.5t-145 42.5q-97 0 -155 -52t-58 -167v-145h238v-172h-238v-840h-223v840h-207zM903 0v1012h223v-1012h-223z" />
<glyph unicode="&#xfb02;" horiz-adv-x="1263" d="M45 840v172h207v145q0 102 32.5 179.5t91.5 125t138 71t176 23.5t176 -23.5t138 -71t91.5 -125t32.5 -179.5v-1157h-223v1145q0 231 -217 231q-97 0 -155 -52t-58 -167v-145h238v-172h-238v-840h-223v840h-207z" />
<glyph horiz-adv-x="0" />
<glyph horiz-adv-x="682" />
<glyph horiz-adv-x="0" />
<glyph horiz-adv-x="0" />
<glyph unicode="&#xd;" horiz-adv-x="512" />
<glyph unicode=" "  horiz-adv-x="532" />
<glyph unicode="&#x09;" horiz-adv-x="532" />
<glyph unicode="&#xa0;" horiz-adv-x="532" />
<glyph unicode="!" horiz-adv-x="524" d="M123 117q0 58 40 98.5t97 40.5q58 0 98.5 -40t40.5 -99q0 -57 -40.5 -97t-98.5 -40q-57 0 -97 40t-40 97zM147 1432h226l-23 -994h-180z" />
<glyph unicode="&#x22;" horiz-adv-x="819" d="M96 1432h213l-22 -650h-160zM512 1432h211l-29 -650h-159z" />
<glyph unicode="#" horiz-adv-x="1511" d="M74 342l20 158h285l63 430h-286l26 157h283l49 345h158l-49 -345h366l49 345h158l-49 -345h293l-25 -157h-291l-61 -430h291l-23 -158h-289l-51 -342h-157l51 342h-373l-47 -342h-156l47 342h-282zM537 500h368l62 430h-369z" />
<glyph unicode="$" horiz-adv-x="1245" d="M49 381l230 49q61 -243 311 -262v467q-12 2 -41 10q-56 15 -94 26t-90 31t-86.5 40t-72 50.5t-59.5 65.5t-36.5 82.5t-14.5 103.5q0 187 136.5 300.5t357.5 113.5v123h88v-127q176 -18 299 -109t164 -258l-209 -49q-34 100 -96 155.5t-158 68.5v-439h2q58 -16 96.5 -27.5 t93.5 -32t91 -41.5t76 -53.5t63.5 -69.5t39 -88t15.5 -110q0 -186 -129 -300.5t-348 -125.5v-131h-88v129q-216 11 -362 118t-179 290zM332 1057q0 -46 18.5 -80.5t57.5 -58.5t79.5 -39.5t102.5 -32.5v420q-118 -3 -188 -59.5t-70 -149.5zM678 168q112 9 173.5 66t61.5 151 q0 89 -59.5 138.5t-175.5 86.5v-442z" />
<glyph unicode="%" horiz-adv-x="1634" d="M106 1133q0 132 94 225.5t226 93.5t225.5 -93.5t93.5 -225.5q0 -133 -93.5 -227.5t-225.5 -94.5q-133 0 -226.5 94t-93.5 228zM256 1133q0 -72 49.5 -122t120.5 -50q72 0 120 50t48 122q0 69 -49.5 119.5t-118.5 50.5q-70 0 -120 -49.5t-50 -120.5zM342 0l752 1432h188 l-754 -1432h-186zM889 303q0 134 94 228t227 94q131 0 224.5 -94.5t93.5 -227.5q0 -132 -93 -226.5t-225 -94.5q-135 0 -228 93.5t-93 227.5zM1038 303q0 -71 50 -120.5t122 -49.5q70 0 119 49.5t49 120.5q0 69 -49.5 119.5t-118.5 50.5q-72 0 -122 -49t-50 -121z" />
<glyph unicode="&#x26;" horiz-adv-x="1499" d="M88 377q0 66 20 124t49 101t83 90.5t101 80.5t124 81l-31 37q-108 132 -108 262q0 138 100 221.5t252 83.5q172 0 270.5 -83.5t98.5 -213.5q0 -109 -71.5 -187t-223.5 -159l313 -393q123 176 123 412h201q0 -164 -51.5 -310.5t-145.5 -261.5l209 -262h-254l-100 125 q-204 -152 -461 -152q-228 0 -363 108.5t-135 295.5zM313 397q0 -114 76.5 -173.5t216.5 -59.5q175 0 322 110l-355 441q-56 -35 -84 -53.5t-68.5 -51.5t-59.5 -60.5t-33.5 -67.5t-14.5 -85zM535 1165q0 -75 83 -182l29 -37q102 60 146.5 111t44.5 114q0 59 -42 97.5 t-106 38.5q-70 0 -112.5 -40t-42.5 -102z" />
<glyph unicode="'" horiz-adv-x="405" d="M98 1432h211l-28 -650h-160z" />
<glyph unicode="(" horiz-adv-x="679" d="M102 582q0 344 84.5 629t237.5 464h221q-163 -163 -253.5 -449.5t-90.5 -643.5t90.5 -644t253.5 -450h-221q-153 178 -237.5 464t-84.5 630z" />
<glyph unicode=")" horiz-adv-x="681" d="M37 -512q163 163 253.5 450t90.5 644t-90.5 643.5t-253.5 449.5h219q153 -179 237.5 -464t84.5 -629t-84.5 -630t-237.5 -464h-219z" />
<glyph unicode="*" horiz-adv-x="796" d="M29 1147v129l254 -31q30 -5 39 11.5t-11 39.5l-153 201l110 66l101 -234q11 -28 30 -28t29 28l100 234l111 -66l-156 -201q-19 -23 -9.5 -40t40.5 -13l254 33v-129l-254 31q-31 5 -40 -12t11 -42l154 -198l-111 -66l-100 232q-11 28 -29.5 28.5t-29.5 -28.5l-101 -232 l-110 66l153 198q19 25 10 41.5t-38 12.5z" />
<glyph unicode="+" d="M111 422v170h403v403h170v-403h401v-170h-401v-404h-170v404h-403z" />
<glyph unicode="," horiz-adv-x="626" d="M145 -367l125 643h228l-189 -643h-164z" />
<glyph unicode="-" horiz-adv-x="798" d="M41 422v170h717v-170h-717z" />
<glyph unicode="." horiz-adv-x="632" d="M178 117q0 57 40.5 98t96.5 41q57 0 98.5 -41t41.5 -98t-41.5 -97t-98.5 -40q-56 0 -96.5 40t-40.5 97z" />
<glyph unicode="/" horiz-adv-x="1210" d="M2 -395l993 1931h213l-993 -1931h-213z" />
<glyph unicode="0" d="M100 717q0 371 127 556t373 185q242 0 370 -185.5t128 -555.5q0 -368 -128 -556t-370 -188q-245 0 -372.5 186.5t-127.5 557.5zM324 717q0 -543 276 -543q274 0 274 543q0 540 -274 540q-276 0 -276 -540z" />
<glyph unicode="1" d="M262 895v256l346 281h217v-1432h-223v1171z" />
<glyph unicode="2" d="M113 940v66q0 212 128 332t353 120q208 0 336.5 -108.5t128.5 -292.5q0 -108 -44.5 -200.5t-152.5 -203.5l-444 -454h672v-199h-973v190l577 588q77 79 111.5 141.5t34.5 129.5q0 99 -63.5 153.5t-174.5 54.5q-130 0 -198 -68.5t-68 -201.5v-69z" />
<glyph unicode="3" d="M94 473h230q2 -140 71.5 -219.5t210.5 -79.5q121 0 193.5 71t72.5 183q0 67 -25 117t-67.5 78t-91 41.5t-102.5 13.5h-47v172h45q104 0 167.5 60t63.5 157q0 87 -59.5 141t-155.5 54q-109 0 -174.5 -71.5t-65.5 -191.5v-12l-225 25q0 207 125.5 326.5t333.5 119.5 q187 0 308.5 -107.5t121.5 -265.5q0 -114 -60 -194t-145 -111q124 -30 202.5 -121.5t78.5 -242.5q0 -196 -135.5 -319.5t-354.5 -123.5q-247 0 -381.5 130.5t-134.5 369.5z" />
<glyph unicode="4" d="M63 301v199l580 932h336v-932h160v-199h-160v-301h-223v301h-693zM281 500h475v782z" />
<glyph unicode="5" d="M104 438q0 11 5 56h217q0 -6 -1 -18.5t-1 -18.5q0 -134 75 -208.5t211 -74.5q125 0 197 77t72 200q0 82 -29 138t-83.5 85.5t-119.5 42t-151 12.5h-344l67 703h817v-199h-616l-33 -320h180q535 0 535 -450q0 -221 -135.5 -355.5t-358.5 -134.5q-231 0 -367.5 125 t-136.5 340z" />
<glyph unicode="6" d="M84 479q0 187 129 355l477 598h268l-387 -480q38 6 72 6q198 0 334.5 -136.5t136.5 -344.5q0 -212 -151.5 -358t-366.5 -146q-217 0 -364.5 148.5t-147.5 357.5zM293 487q-2 -131 81 -222t216 -91q131 0 217 89.5t88 217.5q2 133 -82 223.5t-219 90.5 q-131 0 -214.5 -87.5t-86.5 -220.5z" />
<glyph unicode="7" d="M102 1233v199h998v-199l-690 -1233h-256l704 1233h-756z" />
<glyph unicode="8" d="M100 410q0 126 65 222t177 144q-86 46 -135 125.5t-49 177.5q0 164 125 271.5t317 107.5q189 0 313.5 -107.5t124.5 -271.5q0 -98 -48.5 -177t-131.5 -126q111 -48 175.5 -143.5t64.5 -222.5q0 -194 -141 -315.5t-357 -121.5q-143 0 -256.5 54t-178.5 154t-65 229z M324 434q0 -115 77.5 -187.5t198.5 -72.5q119 0 196.5 72.5t77.5 187.5q0 116 -77 186t-197 70q-123 0 -199.5 -70t-76.5 -186zM365 1071q0 -99 67.5 -164t167.5 -65q99 0 167.5 65.5t68.5 163.5q0 96 -68.5 158.5t-167.5 62.5q-100 0 -167.5 -62.5t-67.5 -158.5z" />
<glyph unicode="9" d="M84 956q0 139 70 254.5t189 181.5t259 66q217 0 364.5 -148.5t147.5 -357.5q0 -187 -129 -352l-477 -600h-268l387 479q-37 -6 -72 -6q-198 0 -334.5 137t-136.5 346zM303 950q-2 -133 82 -223t219 -90q132 0 215 87.5t86 221.5q2 130 -81 220.5t-216 90.5 q-132 0 -217.5 -88.5t-87.5 -218.5z" />
<glyph unicode=":" horiz-adv-x="602" d="M164 117q0 57 40 98t97 41t97 -41t40 -98t-40 -97t-97 -40t-97 40t-40 97zM164 858q0 56 40 96.5t97 40.5t97 -40.5t40 -96.5q0 -57 -40 -98t-97 -41t-97 41t-40 98z" />
<glyph unicode=";" horiz-adv-x="626" d="M119 -367l125 643h227l-188 -643h-164zM205 858q0 56 40.5 96.5t96.5 40.5q57 0 98 -40.5t41 -96.5q0 -57 -41 -98t-98 -41q-56 0 -96.5 41t-40.5 98z" />
<glyph unicode="&#x3c;" horiz-adv-x="999" d="M111 428v160l776 389v-184l-568 -285l568 -287v-184z" />
<glyph unicode="=" horiz-adv-x="1142" d="M111 209v170h921v-170h-921zM111 637v170h921v-170h-921z" />
<glyph unicode="&#x3e;" horiz-adv-x="997" d="M111 37v184l567 287l-567 285v184l776 -389v-160z" />
<glyph unicode="?" horiz-adv-x="1056" d="M63 1036q0 187 125.5 304.5t327.5 117.5q207 0 334 -112.5t127 -301.5q0 -37 -5 -72t-11.5 -62t-20.5 -54.5t-24 -46t-30.5 -40.5t-31 -33.5t-34.5 -30t-33 -25t-34 -23.5t-30 -20q-60 -42 -86.5 -79t-26.5 -87v-43h-180v78q0 91 39.5 145.5t122.5 108.5q33 21 51.5 33.5 t46 38.5t42 50.5t25.5 63t11 84.5q0 114 -69 178t-183 64q-117 0 -186.5 -68.5t-69.5 -179.5q0 -39 8 -72l-200 11q-5 50 -5 73zM383 117q0 58 40.5 97.5t98.5 39.5q56 0 95.5 -39.5t39.5 -97.5q0 -57 -39 -97t-96 -40q-58 0 -98.5 40t-40.5 97z" />
<glyph unicode="@" horiz-adv-x="1800" d="M131 543q0 164 59.5 309t162 249t245.5 164t305 60q164 0 309 -61.5t246 -164t159 -241t58 -289.5q0 -198 -85 -306.5t-244 -108.5q-94 0 -153 35.5t-91 111.5h-12q-38 -74 -107 -114t-158 -40q-110 0 -185 57t-75 154q0 51 21.5 92.5t60 69.5t82 45.5t96.5 28.5l234 53 v47q0 68 -42 106t-114 38q-134 0 -170 -133l-147 36q30 96 111.5 151.5t205.5 55.5q62 0 116 -15.5t98 -47.5t69.5 -87t25.5 -128v-240q0 -81 36.5 -119.5t111.5 -38.5q184 0 184 285q0 130 -47.5 247t-131 203t-204 136.5t-258.5 50.5q-181 0 -328 -84t-230 -232.5 t-83 -332.5q0 -177 86 -323t233 -229t322 -83t338 94l59 -113q-176 -110 -397 -110q-126 0 -243.5 37.5t-212.5 107t-166.5 163t-110.5 210.5t-39 244zM721 371q0 -52 37.5 -82.5t99.5 -30.5q92 0 146.5 66.5t54.5 179.5v49l-180 -45q-87 -23 -122.5 -54.5t-35.5 -82.5z" />
<glyph unicode="A" horiz-adv-x="1429" d="M27 0l542 1432h291l543 -1432h-248l-119 324h-643l-119 -324h-247zM465 518h500l-250 678z" />
<glyph unicode="B" horiz-adv-x="1261" d="M150 0v1432h464q231 0 350 -92.5t119 -272.5q0 -229 -186 -307q274 -77 274 -365q0 -97 -33.5 -170.5t-83.5 -115t-118.5 -67.5t-127.5 -34t-122 -8h-536zM383 199h305q127 0 188.5 55t61.5 168q0 221 -250 221h-305v-444zM383 821h227q242 0 242 209t-242 209h-227v-418 z" />
<glyph unicode="C" horiz-adv-x="1540" d="M88 717q0 217 92 386t257 262t376 93q231 0 406.5 -113.5t255.5 -308.5l-218 -80q-56 135 -173 212t-271 77q-219 0 -356.5 -146t-137.5 -382q0 -237 137.5 -383t356.5 -146q154 0 271 76.5t173 210.5l218 -78q-80 -197 -255.5 -310.5t-406.5 -113.5q-158 0 -292.5 54.5 t-230 151.5t-149 235.5t-53.5 302.5z" />
<glyph unicode="D" horiz-adv-x="1415" d="M150 0v1432h399q346 0 532 -138q242 -181 242 -577q0 -400 -242 -578q-183 -139 -532 -139h-399zM381 205h166q245 0 373 98q172 126 172 414q0 285 -172 411q-129 99 -373 99h-166v-1022z" />
<glyph unicode="E" horiz-adv-x="1048" d="M150 0v1432h808v-205h-575v-410h512v-203h-512v-409h575v-205h-808z" />
<glyph unicode="F" horiz-adv-x="1028" d="M150 0v1432h821v-205h-588v-410h512v-203h-512v-614h-233z" />
<glyph unicode="G" horiz-adv-x="1603" d="M88 717q0 217 92 386t257 262t376 93q209 0 372 -91.5t255 -254.5l-203 -108q-62 114 -172.5 177.5t-251.5 63.5q-219 0 -356.5 -146t-137.5 -382q0 -238 134.5 -383.5t359.5 -145.5q177 0 297.5 100.5t153.5 284.5h-443v189h670v-762h-184v266q-69 -137 -197 -215 t-309 -78q-156 0 -288.5 54.5t-226 151.5t-146 235.5t-52.5 302.5z" />
<glyph unicode="H" horiz-adv-x="1460" d="M150 0v1432h233v-613h696v613h234v-1432h-234v616h-696v-616h-233z" />
<glyph unicode="I" horiz-adv-x="532" d="M150 0v1432h233v-1432h-233z" />
<glyph unicode="J" horiz-adv-x="911" d="M20 74l99 188q110 -74 221 -74q199 0 199 258v986h231v-1026q0 -202 -110 -317.5t-291 -115.5q-182 0 -349 101z" />
<glyph unicode="K" horiz-adv-x="1345" d="M150 0v1432h233v-590h123l506 590h284l-589 -684l610 -748h-291l-514 641h-129v-641h-233z" />
<glyph unicode="L" horiz-adv-x="901" d="M150 0v1432h233v-1227h489v-205h-722z" />
<glyph unicode="M" horiz-adv-x="1859" d="M102 0l115 1432h346l367 -1014l364 1014h348l113 -1432h-233l-92 1202l-420 -1202h-162l-418 1198l-92 -1198h-236z" />
<glyph unicode="N" horiz-adv-x="1527" d="M150 0v1432h280l715 -1115v1115h233v-1432h-284l-711 1118v-1118h-233z" />
<glyph unicode="O" horiz-adv-x="1626" d="M88 717q0 217 92 386t257 262t376 93t376 -93t257 -262t92 -386q0 -164 -53.5 -302.5t-149 -235.5t-230 -151.5t-292.5 -54.5t-292.5 54.5t-230 151.5t-149 235.5t-53.5 302.5zM319 717q0 -237 137.5 -383t356.5 -146q218 0 356 146.5t138 382.5q0 235 -138 381.5 t-356 146.5q-219 0 -356.5 -146t-137.5 -382z" />
<glyph unicode="P" horiz-adv-x="1214" d="M150 0v1432h456q144 0 239.5 -25t162.5 -78q139 -114 139 -340q0 -138 -53 -245t-156 -164q-113 -60 -332 -60h-225v-520h-231zM381 717h194q174 0 238 43q102 62 102 217q0 141 -88 207q-75 53 -252 53h-194v-520z" />
<glyph unicode="Q" horiz-adv-x="1636" d="M88 717q0 217 92 386t257 262t376 93t376 -93t257 -262t92 -386q0 -318 -188 -522l223 -263l-203 -77l-190 206q-164 -88 -367 -88q-158 0 -292.5 54.5t-230 151.5t-149 235.5t-53.5 302.5zM319 717q0 -237 137.5 -383t356.5 -146q218 0 356 146.5t138 382.5 q0 235 -138 381.5t-356 146.5q-219 0 -356.5 -146t-137.5 -382z" />
<glyph unicode="R" horiz-adv-x="1306" d="M150 0v1432h458q143 0 238 -25t162 -78q141 -113 141 -340q0 -138 -53.5 -245t-155.5 -164q-38 -20 -86 -33l393 -547h-291l-360 520h-213v-520h-233zM383 717h195q171 0 237 43q100 62 100 217q0 144 -88 207q-75 53 -249 53h-195v-520z" />
<glyph unicode="S" horiz-adv-x="1245" d="M49 381l230 49q33 -132 124 -198t230 -66q133 0 206.5 58t73.5 161q0 26 -6.5 48.5t-15.5 40t-27.5 34t-33 28t-43.5 24t-47 20t-54.5 18t-56 15.5t-60.5 16q-42 11 -67 18t-66 20t-66.5 24t-61.5 27.5t-58.5 33.5t-49.5 39.5t-43.5 48.5t-31.5 57t-22 68t-7 79 q0 187 137 300.5t359 113.5q99 0 185.5 -21.5t160 -65t126.5 -116t77 -168.5l-209 -49q-40 118 -118.5 173t-209.5 55q-124 0 -198 -56.5t-74 -152.5q0 -30 10 -55.5t23.5 -43.5t41.5 -35.5t49 -27.5t63 -23t66 -19.5t74 -18.5q47 -11 77 -19t76 -22.5t76.5 -27.5 t69.5 -33.5t65 -42.5t53 -52.5t43 -64.5t26 -77.5t10 -93.5q0 -195 -143 -311.5t-381 -116.5q-231 0 -389 108t-193 300z" />
<glyph unicode="T" horiz-adv-x="1011" d="M29 1227v205h954v-205h-360v-1227h-232v1227h-362z" />
<glyph unicode="U" horiz-adv-x="1374" d="M133 500v932h234v-904q0 -168 87.5 -256t233.5 -88q145 0 233.5 88t88.5 256v904h231v-932q0 -169 -73 -290t-196 -179t-284 -58t-284.5 58t-197 179t-73.5 290z" />
<glyph unicode="V" horiz-adv-x="1431" d="M27 1432h247l441 -1196l440 1196h248l-543 -1432h-291z" />
<glyph unicode="W" horiz-adv-x="2103" d="M41 1432h242l319 -1192l346 1192h207l346 -1190l320 1190h241l-389 -1432h-313l-309 1022l-310 -1022h-311z" />
<glyph unicode="X" horiz-adv-x="1464" d="M29 0l565 741l-549 691h283l403 -521l406 521h282l-549 -691l566 -741h-291l-414 551l-412 -551h-290z" />
<glyph unicode="Y" horiz-adv-x="1232" d="M12 1432h256l348 -558l347 558h256l-486 -756v-676h-233v672z" />
<glyph unicode="Z" horiz-adv-x="1179" d="M70 0v190l759 1037h-757v205h1030v-189l-760 -1038h768v-205h-1040z" />
<glyph unicode="[" horiz-adv-x="665" d="M135 -512v2187h481v-162h-282v-1865h282v-160h-481z" />
<glyph unicode="\" horiz-adv-x="1210" d="M2 1536h213l993 -1931h-213z" />
<glyph unicode="]" horiz-adv-x="665" d="M49 -352h283v1865h-283v162h481v-2187h-481v160z" />
<glyph unicode="^" horiz-adv-x="1413" d="M88 305l516 1127h205l514 -1127h-190l-426 932l-426 -932h-193z" />
<glyph unicode="_" horiz-adv-x="1024" d="M0 -43h1024v-170h-1024v170z" />
<glyph unicode="`" horiz-adv-x="722" d="M150 1432h239l184 -295h-194z" />
<glyph unicode="a" horiz-adv-x="1103" d="M92 252q0 75 29 132t85 94.5t121.5 61t153.5 40.5l183 34q84 16 84 74q0 90 -53.5 136t-147.5 46q-198 0 -219 -188l-224 31q26 157 140 238t307 81q204 0 312 -95t108 -275v-390q0 -52 16.5 -74t56.5 -22h37v-176h-104q-82 0 -130 35.5t-48 107.5v23h-11 q-53 -89 -151 -137.5t-231 -48.5q-137 0 -225.5 68.5t-88.5 203.5zM315 272q0 -57 40 -87.5t112 -30.5q130 0 211.5 89t81.5 238l-268 -61q-177 -31 -177 -148z" />
<glyph unicode="b" horiz-adv-x="1286" d="M139 0v1536h221v-682q47 84 139.5 131t207.5 47q210 0 349.5 -144t139.5 -382q0 -239 -139 -382.5t-350 -143.5q-115 0 -207.5 46t-139.5 130v-156h-221zM352 506q0 -154 87 -247t223 -93q137 0 224 92.5t87 247.5q0 152 -87.5 246t-223.5 94q-135 0 -222.5 -94 t-87.5 -246z" />
<glyph unicode="c" horiz-adv-x="1185" d="M88 508q0 231 148 377.5t382 146.5q187 0 317 -94.5t169 -263.5l-207 -23q-29 99 -102 152t-179 53q-136 0 -220.5 -97.5t-84.5 -250.5q0 -156 84.5 -254t220.5 -98q106 0 179 53t102 153l207 -22q-39 -169 -170 -264.5t-316 -95.5q-233 0 -381.5 147.5t-148.5 380.5z " />
<glyph unicode="d" horiz-adv-x="1286" d="M90 506q0 119 38 218.5t104 166.5t156 104t192 37q115 0 207 -47t139 -131v682h223v-1536h-223v156q-47 -84 -139 -130t-207 -46q-103 0 -192.5 37t-155.5 103.5t-104 166t-38 219.5zM313 506q0 -154 87.5 -247t224.5 -93q136 0 222.5 93t86.5 247q0 152 -87 246t-222 94 q-136 0 -224 -94t-88 -246z" />
<glyph unicode="e" horiz-adv-x="1206" d="M90 506q0 240 144.5 383t377.5 143q224 0 364 -136t140 -384l-2 -51h-805q9 -142 94.5 -223.5t214.5 -81.5q92 0 161 43t104 123l204 -31q-51 -147 -176 -229t-293 -82q-240 0 -384 142.5t-144 383.5zM319 631h572q-17 108 -92 166.5t-185 58.5q-120 0 -196 -56t-99 -169 z" />
<glyph unicode="f" horiz-adv-x="759" d="M45 840v172h207v145q0 110 28 185.5t84 117t126.5 59t168.5 17.5h54v-178h-54q-184 0 -184 -201v-145h238v-172h-238v-840h-223v840h-207z" />
<glyph unicode="g" horiz-adv-x="1261" d="M88 526q0 225 135.5 365.5t335.5 140.5q116 0 205.5 -48t136.5 -130v158h223v-996q0 -265 -135.5 -396.5t-378.5 -131.5q-197 0 -323 83.5t-181 231.5l187 78q92 -219 309 -219q149 0 224 89t75 249v190q-45 -80 -137 -128t-207 -48q-199 0 -334 143t-135 369zM303 526 q0 -144 86 -236.5t219 -92.5q134 0 220.5 92.5t86.5 236.5q0 143 -86 235.5t-221 92.5q-132 0 -218.5 -93t-86.5 -235z" />
<glyph unicode="h" horiz-adv-x="1185" d="M135 0v1536h223v-659q53 73 139.5 114t194.5 41q178 0 272.5 -98t94.5 -285v-649h-223v616q0 119 -59.5 178.5t-164.5 59.5q-52 0 -96 -16.5t-80 -50t-56.5 -90t-21.5 -130.5v-567h-223z" />
<glyph unicode="i" horiz-adv-x="491" d="M106 1352q0 57 41.5 97t98.5 40t98 -40t41 -97t-41 -98.5t-98 -41.5t-98.5 41.5t-41.5 98.5zM135 0v1012h223v-1012h-223z" />
<glyph unicode="j" horiz-adv-x="487" d="M-117 -324q144 0 194 69t50 251v1016h223v-1016q0 -260 -107.5 -377t-359.5 -117v174zM98 1352q0 57 41.5 97t98.5 40t98 -40t41 -97t-41 -98.5t-98 -41.5t-98.5 41.5t-41.5 98.5z" />
<glyph unicode="k" horiz-adv-x="1128" d="M135 0v1536h223v-934h66l377 410h256l-445 -475l478 -537h-271l-393 446h-68v-446h-223z" />
<glyph unicode="l" horiz-adv-x="493" d="M135 0v1536h223v-1536h-223z" />
<glyph unicode="m" horiz-adv-x="1753" d="M137 0v1012h223v-119q48 67 123 103t168 36q118 0 201 -46.5t117 -131.5q47 86 128 132t187 46q160 0 251 -81.5t91 -223.5v-727h-223v655q0 95 -53 147t-140 52q-98 0 -157.5 -65.5t-59.5 -202.5v-586h-223v655q0 94 -54 146.5t-141 52.5q-88 0 -146.5 -54.5 t-68.5 -166.5v-633h-223z" />
<glyph unicode="n" horiz-adv-x="1185" d="M137 0v1012h223v-125q53 70 135.5 107.5t184.5 37.5q184 0 281.5 -94t97.5 -266v-672h-223v629q0 111 -60 168t-162 57q-104 0 -173.5 -61.5t-80.5 -184.5v-608h-223z" />
<glyph unicode="o" horiz-adv-x="1253" d="M88 508q0 237 150 380.5t389 143.5q238 0 387 -143.5t149 -380.5q0 -240 -148.5 -383t-387.5 -145q-239 2 -389 145t-150 383zM311 508q0 -155 87.5 -251.5t228.5 -96.5q140 0 227.5 96.5t87.5 251.5q0 152 -88 249t-227 97q-141 0 -228.5 -96.5t-87.5 -249.5z" />
<glyph unicode="p" horiz-adv-x="1286" d="M135 -498v1510h223v-154q47 83 139 128.5t208 45.5q137 0 247.5 -62.5t176 -183t65.5 -278.5q0 -238 -139.5 -383t-349.5 -145q-116 0 -208 47t-139 131v-656h-223zM350 508q0 -153 87 -247.5t222 -94.5t223.5 94.5t88.5 247.5t-88 245.5t-224 92.5t-222.5 -92.5 t-86.5 -245.5z" />
<glyph unicode="q" horiz-adv-x="1286" d="M92 508q0 119 38 218t104 165.5t155.5 103.5t192.5 37q117 0 209 -45t137 -129v154h223v-1510h-223v656q-45 -84 -137.5 -131t-208.5 -47q-210 0 -350 145t-140 383zM315 508q0 -153 88.5 -247.5t223.5 -94.5t222 94.5t87 247.5t-86.5 245.5t-222.5 92.5t-224 -92.5 t-88 -245.5z" />
<glyph unicode="r" horiz-adv-x="772" d="M135 0v1012h223v-168q46 87 143 137.5t224 50.5v-207q-191 0 -279 -82.5t-88 -271.5v-471h-223z" />
<glyph unicode="s" horiz-adv-x="1013" d="M86 268l186 51q23 -87 88.5 -131.5t159.5 -44.5q82 0 133.5 36t51.5 100q0 31 -14 55t-33.5 39t-55.5 28t-63 19.5t-74 15.5q-84 16 -142.5 36t-109.5 52.5t-76.5 83t-25.5 119.5q0 141 106 223t281 82q152 0 262 -66t141 -194l-196 -43q-43 141 -213 141q-79 0 -128 -32 t-49 -88q0 -26 13.5 -46.5t32 -33.5t53.5 -25.5t63 -19.5t74 -17q92 -20 151 -40t113 -54.5t79.5 -87.5t25.5 -127q0 -105 -55 -178.5t-142 -107t-197 -33.5q-174 0 -294 75.5t-146 212.5z" />
<glyph unicode="t" horiz-adv-x="782" d="M45 840v172h96q65 0 98 33.5t33 119.5v178h199v-331h234v-172h-234v-506q0 -76 38.5 -115t106.5 -39h89v-180h-162q-139 0 -217 80t-78 221v539h-203z" />
<glyph unicode="u" horiz-adv-x="1185" d="M125 340v672h223v-629q0 -110 59.5 -166.5t161.5 -56.5q113 0 184 71t72 215v566h224v-1012h-224v127q-53 -70 -135.5 -108.5t-185.5 -38.5q-184 0 -281.5 94t-97.5 266z" />
<glyph unicode="v" horiz-adv-x="1138" d="M39 1012h242l288 -750l287 750h244l-430 -1012h-201z" />
<glyph unicode="w" horiz-adv-x="1761" d="M43 1012h238l247 -748l258 748h189l258 -748l248 748h235l-356 -1012h-238l-241 743l-242 -743h-238z" />
<glyph unicode="x" horiz-adv-x="1208" d="M43 0l426 508l-426 504h281l280 -359l279 359h278l-424 -506l424 -506h-278l-279 356l-278 -356h-283z" />
<glyph unicode="y" horiz-adv-x="1138" d="M39 1012h242l286 -748l289 748h244l-637 -1510h-244l234 537z" />
<glyph unicode="z" horiz-adv-x="985" d="M55 0l529 840h-486v172h828l-531 -838h512v-174h-852z" />
<glyph unicode="{" horiz-adv-x="663" d="M59 506v149q91 23 119.5 78t28.5 197v473q0 117 80 194.5t213 77.5h112v-164h-71q-54 0 -88.5 -35t-34.5 -98v-442q0 -69 -6.5 -120t-24 -99t-51 -82t-84.5 -53q51 -20 84.5 -54t51 -82t24 -99t6.5 -120v-442q0 -64 34 -98.5t89 -34.5h71v-164h-112q-134 0 -213.5 77 t-79.5 195v473q0 141 -29 196.5t-119 76.5z" />
<glyph unicode="|" horiz-adv-x="667" d="M223 -307v1843h223v-1843h-223z" />
<glyph unicode="}" horiz-adv-x="663" d="M51 -348h72q55 0 89 34.5t34 98.5v442q0 69 6.5 120t24 99t51 82t84.5 54q-51 19 -84.5 53t-51 82t-24 99t-6.5 120v442q0 63 -34.5 98t-88.5 35h-72v164h113q133 0 213 -77.5t80 -194.5v-473q0 -142 28 -197t119 -78v-149q-90 -21 -118.5 -76.5t-28.5 -196.5v-473 q0 -118 -79.5 -195t-213.5 -77h-113v164z" />
<glyph unicode="~" horiz-adv-x="1257" d="M111 324q0 172 85.5 276.5t239.5 104.5q85 0 142.5 -37.5t115.5 -112.5q23 -30 37.5 -45.5t41.5 -31t56 -15.5q71 0 117 61t43 160h156q0 -165 -81.5 -270t-221.5 -105q-24 0 -46 3t-43 11t-37 14.5t-34.5 20t-29 20.5t-27.5 24l-22.5 22.5t-21.5 23t-18 19.5 q-37 40 -66.5 59t-64.5 19q-75 0 -117.5 -63.5t-44.5 -157.5h-159z" />
<glyph unicode="&#xa1;" horiz-adv-x="524" d="M123 893q0 58 40 98.5t97 40.5q58 0 98.5 -40t40.5 -99q0 -57 -40.5 -97t-98.5 -40q-57 0 -97 40t-40 97zM147 -422l23 993h180l23 -993h-226z" />
<glyph unicode="&#xa2;" horiz-adv-x="1185" d="M88 719q0 213 127.5 356.5t333.5 165.5v191h135v-191q162 -15 272.5 -108t147.5 -248l-207 -23q-29 99 -102 152t-179 53q-136 0 -220.5 -97t-84.5 -251t84.5 -252t220.5 -98q106 0 179 52.5t102 151.5l207 -20q-36 -155 -148 -249t-272 -109v-195h-135v195 q-206 22 -333.5 166t-127.5 358z" />
<glyph unicode="&#xa3;" horiz-adv-x="1323" d="M139 0v137l76 8q78 15 78 103v366h-154v162h154v185q0 225 127.5 359t341.5 134q84 0 157.5 -22.5t131.5 -67t91.5 -118t33.5 -167.5q0 -15 -5 -65l-188 -10q4 36 4 53q0 105 -60 160t-169 55q-126 0 -194 -78t-68 -233v-185h325v-162h-325v-424h667v-190h-1024z" />
<glyph unicode="&#xa4;" horiz-adv-x="1374" d="M150 307l155 156q-82 118 -82 258t82 258l-153 154l118 127l158 -158q121 82 260 82q138 0 256 -82l158 155l121 -122l-156 -154q80 -113 80 -260t-80 -258l156 -156l-121 -125l-158 158q-115 -80 -258 -80q-142 0 -260 80l-158 -158zM395 719q0 -123 86 -206t205 -83 q122 0 206.5 86.5t84.5 206.5t-85.5 204.5t-205.5 84.5t-205.5 -86.5t-85.5 -206.5z" />
<glyph unicode="&#xa5;" horiz-adv-x="1232" d="M12 1432h256l348 -551l347 551h256l-406 -625h287v-170h-367v-258h367v-170h-367v-209h-233v209h-369v170h369v258h-369v170h287z" />
<glyph unicode="&#xa6;" horiz-adv-x="667" d="M223 -307v737h223v-737h-223zM223 799v737h223v-737h-223z" />
<glyph unicode="&#xa7;" horiz-adv-x="1282" d="M150 602q0 149 86 244q-86 83 -86 217q0 175 126.5 278t331.5 103q94 0 174.5 -19t148.5 -58.5t115.5 -105t69.5 -153.5l-180 -45q-30 117 -108.5 171t-209.5 54q-125 0 -201.5 -58.5t-76.5 -162.5q0 -42 20 -76t42 -54t77.5 -41t83.5 -29t104 -27q10 -3 15 -4 q56 -14 92 -24t88.5 -29t86.5 -38t72 -48.5t60 -63t37 -80.5t15 -102q0 -147 -84 -244q84 -84 84 -217q0 -175 -126.5 -278t-332.5 -103q-94 0 -174.5 19t-148.5 58.5t-115.5 105t-69.5 153.5l180 47q30 -117 109 -172.5t209 -55.5q126 0 202 59t76 163q0 42 -20 76t-42 54 t-77.5 41t-83.5 29t-104 27q-3 1 -5 1.5t-5 1t-5 1.5q-43 11 -71.5 18.5t-70 21t-69.5 25.5t-63 30.5t-58.5 38t-47.5 46t-38 56.5t-23 68t-9 81zM344 612q0 -46 20.5 -83t45.5 -59.5t80 -45t89 -32.5t107 -29q13 -3 19 -5q133 -28 184 -61q51 57 51 143q0 34 -11 63t-26 50 t-45.5 40.5t-53.5 31t-68 26t-71 21.5t-79 20q-5 1 -8 2q-128 27 -183 62q-51 -54 -51 -144z" />
<glyph unicode="&#xa8;" horiz-adv-x="966" d="M150 1352q0 57 41 97t98 40t98 -40t41 -97t-41 -98.5t-98 -41.5t-98 41.5t-41 98.5zM539 1352q0 57 41 97t98 40t98 -40t41 -97t-41 -98.5t-98 -41.5t-98 41.5t-41 98.5z" />
<glyph unicode="&#xa9;" horiz-adv-x="1736" d="M131 717q0 200 99 369t268.5 267.5t369.5 98.5q148 0 284.5 -58.5t235 -157.5t157.5 -235t59 -284q0 -150 -58.5 -286t-157 -235t-234.5 -157.5t-286 -58.5q-200 0 -369.5 99t-268.5 268.5t-99 369.5zM254 717q0 -168 81.5 -310t223 -224.5t309.5 -82.5t309.5 82.5 t223.5 224.5t82 310q0 167 -82 308.5t-223.5 223.5t-309.5 82q-167 0 -308.5 -82t-223.5 -223.5t-82 -308.5zM471 715q0 166 115.5 281.5t281.5 115.5q96 0 178.5 -43.5t139.5 -118.5l-99 -69q-37 50 -94.5 79t-124.5 29q-116 0 -195 -79.5t-79 -194.5q0 -114 79.5 -193.5 t194.5 -79.5q66 0 124 29.5t95 79.5l99 -72q-57 -74 -139.5 -117t-178.5 -43q-166 0 -281.5 115.5t-115.5 280.5z" />
<glyph unicode="&#xaa;" horiz-adv-x="919" d="M102 1124q0 133 90 226.5t218 93.5q137 0 221 -109v97h131v-615h-131v96q-83 -108 -221 -108q-128 0 -218 93t-90 226zM231 1124q0 -85 59 -144.5t142 -59.5q82 0 140.5 59.5t58.5 144.5q0 84 -58.5 143.5t-140.5 59.5q-83 0 -142 -59t-59 -144z" />
<glyph unicode="&#xab;" horiz-adv-x="1075" d="M61 508l312 377h184l-311 -377l311 -377h-184zM514 508l311 377h185l-312 -377l312 -377h-185z" />
<glyph unicode="&#xac;" horiz-adv-x="1503" d="M111 647v184h1282v-649h-183v465h-1099z" />
<glyph unicode="&#xad;" horiz-adv-x="798" d="M41 422v170h717v-170h-717z" />
<glyph unicode="&#xae;" horiz-adv-x="878" d="M29 1042q0 169 119.5 289.5t289.5 120.5q168 0 290 -121t122 -289q0 -167 -122.5 -289t-289.5 -122q-168 0 -288.5 121.5t-120.5 289.5zM104 1042q0 -138 97.5 -235.5t236.5 -97.5q138 0 236 97.5t98 235.5q0 139 -98 236.5t-236 97.5q-139 0 -236.5 -98t-97.5 -236z M283 817v451h200q57 0 95 -39t38 -96q0 -39 -19 -70.5t-52 -46.5l84 -199h-90l-74 187h-103v-187h-79zM362 1073h105q32 0 50 16.5t18 43.5q0 28 -18 44.5t-50 16.5h-105v-121z" />
<glyph unicode="&#xaf;" horiz-adv-x="825" d="M150 1200v146h524v-146h-524z" />
<glyph unicode="&#xb0;" horiz-adv-x="923" d="M164 1155q0 123 87.5 210t211.5 87q123 0 210 -87t87 -210q0 -124 -87 -211.5t-210 -87.5q-125 0 -212 87t-87 212zM293 1155q0 -72 49 -121t121 -49q71 0 119.5 49t48.5 121q0 71 -48.5 119.5t-119.5 48.5q-72 0 -121 -48.5t-49 -119.5z" />
<glyph unicode="&#xb1;" d="M111 31v170h974v-170h-974zM111 653v170h403v334h170v-334h401v-170h-401v-334h-170v334h-403z" />
<glyph unicode="&#xb2;" horiz-adv-x="686" d="M53 1382v39q0 127 76.5 200t210.5 73q126 0 203.5 -65.5t77.5 -176.5q0 -64 -27 -119.5t-92 -122.5l-266 -272h403v-119h-584v113l346 354q47 47 67.5 84t20.5 78q0 59 -38 92t-105 33q-77 0 -118.5 -41.5t-41.5 -120.5v-43z" />
<glyph unicode="&#xb3;" horiz-adv-x="704" d="M47 1102h137q0 -83 42.5 -131.5t125.5 -48.5q74 0 118 43t44 110q0 78 -51 114t-121 36h-29v104h27q63 0 101 36t38 93q0 52 -36 84.5t-93 32.5q-66 0 -104.5 -43t-38.5 -115v-6l-135 14q0 125 74.5 197t199.5 72q113 0 185.5 -64.5t72.5 -159.5q0 -69 -36 -117t-87 -67 q74 -19 121 -73.5t47 -145.5q0 -117 -81.5 -190.5t-211.5 -73.5q-149 0 -229 78t-80 221z" />
<glyph unicode="&#xb4;" horiz-adv-x="722" d="M150 1137l186 295h237l-229 -295h-194z" />
<glyph unicode="&#xb5;" horiz-adv-x="1183" d="M125 -498v1510h223v-629q0 -111 59 -167t162 -56q112 0 183 71.5t71 214.5v566h224v-1012h-211l-9 133q-53 -73 -137 -113t-188 -40q-79 0 -154 20v-498h-223z" />
<glyph unicode="&#xb6;" horiz-adv-x="1185" d="M104 1090q0 165 97 253.5t268 88.5h172v-1739h-119v1052h-53q-171 0 -268 90t-97 255zM842 -307v1739h121v-1739h-121z" />
<glyph unicode="&#xb7;" horiz-adv-x="673" d="M199 717q0 57 41.5 99t97.5 42t98.5 -42t42.5 -99q0 -59 -42.5 -100.5t-98.5 -41.5t-97.5 41.5t-41.5 100.5z" />
<glyph unicode="&#xb8;" horiz-adv-x="731" d="M150 -373l124 39q23 -53 93 -53q40 0 67 24t27 64t-26 62t-66 22q-47 0 -76 -29l-109 49l146 256l112 -41l-94 -157q27 8 58 8q79 0 126.5 -47t47.5 -123q0 -84 -58 -139.5t-151 -55.5q-87 0 -142.5 32.5t-78.5 88.5z" />
<glyph unicode="&#xb9;" horiz-adv-x="468" d="M12 1356v153l209 168h129v-858h-133v705z" />
<glyph unicode="&#xba;" horiz-adv-x="843" d="M86 1133q0 134 97.5 226.5t238.5 92.5t239.5 -93t98.5 -226t-98.5 -226.5t-239.5 -93.5t-238.5 93t-97.5 227zM215 1133q0 -86 60.5 -146.5t146.5 -60.5q85 0 146 60.5t61 146.5t-61 146t-146 60q-86 0 -146.5 -60t-60.5 -146z" />
<glyph unicode="&#xbb;" horiz-adv-x="1075" d="M66 131l311 377l-311 377h184l311 -377l-311 -377h-184zM518 131l311 377l-311 377h184l312 -377l-312 -377h-184z" />
<glyph unicode="&#xbc;" horiz-adv-x="1515" d="M12 1110v154l209 168h129v-859h-133v705zM190 0l807 1432h138l-809 -1432h-136zM823 180v121l348 559h201v-561h96v-119h-96v-180h-133v180h-416zM952 299h287v469z" />
<glyph unicode="&#xbd;" horiz-adv-x="1542" d="M12 1110v154l209 168h129v-859h-133v705zM190 0l807 1432h138l-809 -1432h-136zM909 563v39q0 128 76.5 200t210.5 72q126 0 203.5 -65t77.5 -174q0 -65 -27 -121t-92 -123l-266 -272h403v-119h-584v115l346 352q47 47 68 84.5t21 77.5q0 60 -39 93.5t-105 33.5 q-77 0 -118.5 -42.5t-41.5 -121.5v-41z" />
<glyph unicode="&#xbe;" horiz-adv-x="1748" d="M47 856h137q0 -83 42.5 -131.5t125.5 -48.5q74 0 118 43t44 110q0 78 -51 114t-121 36h-29v104h27q63 0 101 36t38 93q0 52 -36 84.5t-93 32.5q-66 0 -104.5 -43t-38.5 -115v-6l-135 15q0 125 74 196.5t200 71.5q113 0 185.5 -64t72.5 -159q0 -69 -36 -117.5t-87 -67.5 q74 -19 121 -73.5t47 -145.5q0 -117 -81.5 -190.5t-211.5 -73.5q-149 0 -229 78t-80 221zM426 0l807 1432h137l-809 -1432h-135zM1059 180v121l348 559h201v-561h96v-119h-96v-180h-133v180h-416zM1188 299h287v469z" />
<glyph unicode="&#xbf;" horiz-adv-x="1056" d="M63 -33q0 38 5 72.5t11.5 62t20.5 55t24.5 46t30 40.5t31 34t35 30t33 24.5t33.5 23t30 20.5q61 42 88 79t27 89v43h180v-78q0 -91 -40 -147t-123 -107q-28 -19 -36 -24.5t-33.5 -25t-34.5 -30.5t-27 -34t-24.5 -43.5t-13 -50t-6.5 -62.5q0 -115 68.5 -179.5t181.5 -64.5 q117 0 186.5 69t69.5 179q0 36 -6 71l199 -8q4 -46 4 -74q0 -187 -125 -305t-328 -118q-207 0 -334 112t-127 301zM383 895q0 57 40 97t97 40t97 -40t40 -97t-40 -97t-97 -40q-56 0 -96.5 40t-40.5 97z" />
<glyph unicode="&#xc0;" horiz-adv-x="1429" d="M27 0l542 1432h291l543 -1432h-248l-119 324h-643l-119 -324h-247zM408 1761h237l168 -268h-195zM465 518h500l-250 678z" />
<glyph unicode="&#xc1;" horiz-adv-x="1429" d="M27 0l542 1432h291l543 -1432h-248l-119 324h-643l-119 -324h-247zM465 518h500l-250 678zM618 1493l168 268h238l-211 -268h-195z" />
<glyph unicode="&#xc2;" horiz-adv-x="1429" d="M27 0l542 1432h291l543 -1432h-248l-119 324h-643l-119 -324h-247zM387 1511l199 250h260l196 -250h-182l-145 150l-146 -150h-182zM465 518h500l-250 678z" />
<glyph unicode="&#xc3;" horiz-adv-x="1429" d="M27 0l542 1432h291l543 -1432h-248l-119 324h-643l-119 -324h-247zM375 1509q0 118 57.5 193.5t151.5 75.5q44 0 80.5 -17t53.5 -32.5t42 -45.5q21 -25 29.5 -34t28 -20t42.5 -11q40 0 60 39.5t20 105.5h115q0 -119 -55.5 -194.5t-151.5 -75.5q-45 0 -81 16t-54 33 t-39 45q-19 23 -29.5 34t-30.5 21.5t-43 10.5q-40 0 -61 -40.5t-21 -103.5h-114zM465 518h500l-250 678z" />
<glyph unicode="&#xc4;" horiz-adv-x="1429" d="M27 0l542 1432h291l543 -1432h-248l-119 324h-643l-119 -324h-247zM381 1661q0 57 41 97t98 40t98 -40t41 -97t-41 -98t-98 -41t-98 41t-41 98zM465 518h500l-250 678zM770 1661q0 57 41 97t98 40t98.5 -40t41.5 -97t-41.5 -98t-98.5 -41t-98 41t-41 98z" />
<glyph unicode="&#xc5;" horiz-adv-x="1429" d="M27 0l542 1432h291l543 -1432h-248l-119 324h-643l-119 -324h-247zM459 1733q0 107 74.5 177t181.5 70q106 0 179 -70t73 -177t-73.5 -177.5t-178.5 -70.5q-107 0 -181.5 70.5t-74.5 177.5zM465 518h500l-250 678zM575 1733q0 -60 40.5 -100t99.5 -40q58 0 98.5 40.5 t40.5 99.5q0 60 -40 99.5t-99 39.5q-60 0 -100 -39.5t-40 -99.5z" />
<glyph unicode="&#xc6;" horiz-adv-x="1800" d="M27 0l542 1432h1141v-205h-588v-410h514v-205h-514v-407h588v-205h-819v324h-496l-121 -324h-247zM461 518h430v709h-164z" />
<glyph unicode="&#xc7;" horiz-adv-x="1540" d="M88 717q0 217 92 386t257 262t376 93q231 0 406.5 -113.5t255.5 -308.5l-218 -80q-56 135 -173 212t-271 77q-219 0 -356.5 -146t-137.5 -382q0 -237 137.5 -383t356.5 -146q154 0 271 76.5t173 210.5l218 -78q-75 -186 -237 -298t-376 -124l-67 -112q27 8 57 8 q79 0 126.5 -47t47.5 -123q0 -84 -58 -139.5t-151 -55.5q-87 0 -142.5 32.5t-78.5 88.5l125 39q23 -53 92 -53q40 0 67 24t27 64t-26 62t-66 22q-47 0 -76 -29l-108 49l98 172q-287 28 -464 230.5t-177 509.5z" />
<glyph unicode="&#xc8;" horiz-adv-x="1048" d="M150 0v1432h808v-205h-575v-410h512v-203h-512v-409h575v-205h-808zM258 1761h238l168 -268h-195z" />
<glyph unicode="&#xc9;" horiz-adv-x="1048" d="M150 0v1432h808v-205h-575v-410h512v-203h-512v-409h575v-205h-808zM469 1493l168 268h237l-210 -268h-195z" />
<glyph unicode="&#xca;" horiz-adv-x="1048" d="M150 0v1432h808v-205h-575v-410h512v-203h-512v-409h575v-205h-808zM238 1511l198 250h260l197 -250h-182l-146 150l-145 -150h-182z" />
<glyph unicode="&#xcb;" horiz-adv-x="1048" d="M150 0v1432h808v-205h-575v-410h512v-203h-512v-409h575v-205h-808zM231 1661q0 57 41.5 97t98.5 40t98 -40t41 -97t-41 -98t-98 -41t-98.5 41t-41.5 98zM621 1661q0 57 41 97t98 40t98 -40t41 -97t-41 -98t-98 -41t-98 41t-41 98z" />
<glyph unicode="&#xcc;" horiz-adv-x="532" d="M-43 1761h238l167 -268h-194zM150 0v1432h233v-1432h-233z" />
<glyph unicode="&#xcd;" horiz-adv-x="532" d="M150 0v1432h233v-1432h-233zM168 1493l168 268h237l-211 -268h-194z" />
<glyph unicode="&#xce;" horiz-adv-x="532" d="M-63 1511l198 250h260l197 -250h-182l-146 150l-145 -150h-182zM150 0v1432h233v-1432h-233z" />
<glyph unicode="&#xcf;" horiz-adv-x="532" d="M-70 1661q0 57 41.5 97t98.5 40t98 -40t41 -97t-41 -98t-98 -41t-98.5 41t-41.5 98zM150 0v1432h233v-1432h-233zM319 1661q0 57 41.5 97t98.5 40t98 -40t41 -97t-41 -98t-98 -41t-98.5 41t-41.5 98z" />
<glyph unicode="&#xd0;" horiz-adv-x="1415" d="M-8 645v141h158v646h399q346 0 532 -138q242 -181 242 -577q0 -400 -242 -578q-183 -139 -532 -139h-399v645h-158zM381 205h166q245 0 373 98q172 126 172 414q0 285 -172 411q-129 99 -373 99h-166v-441h272v-141h-272v-440z" />
<glyph unicode="&#xd1;" horiz-adv-x="1527" d="M150 0v1432h280l715 -1115v1115h233v-1432h-284l-711 1118v-1118h-233zM430 1509q0 118 57.5 193.5t151.5 75.5q44 0 80.5 -17t53.5 -32.5t42 -45.5q21 -25 29.5 -34t28 -20t42.5 -11q40 0 60 39.5t20 105.5h115q0 -119 -55.5 -194.5t-151.5 -75.5q-45 0 -81 16t-54 33 t-39 45q-20 24 -29.5 34t-29.5 21t-43 11q-40 0 -61 -40.5t-21 -103.5h-115z" />
<glyph unicode="&#xd2;" horiz-adv-x="1626" d="M88 717q0 217 92 386t257 262t376 93t376 -93t257 -262t92 -386q0 -164 -53.5 -302.5t-149 -235.5t-230 -151.5t-292.5 -54.5t-292.5 54.5t-230 151.5t-149 235.5t-53.5 302.5zM319 717q0 -237 137.5 -383t356.5 -146q218 0 356 146.5t138 382.5q0 235 -138 381.5 t-356 146.5q-219 0 -356.5 -146t-137.5 -382zM504 1761h237l168 -268h-194z" />
<glyph unicode="&#xd3;" horiz-adv-x="1626" d="M88 717q0 217 92 386t257 262t376 93t376 -93t257 -262t92 -386q0 -164 -53.5 -302.5t-149 -235.5t-230 -151.5t-292.5 -54.5t-292.5 54.5t-230 151.5t-149 235.5t-53.5 302.5zM319 717q0 -237 137.5 -383t356.5 -146q218 0 356 146.5t138 382.5q0 235 -138 381.5 t-356 146.5q-219 0 -356.5 -146t-137.5 -382zM715 1493l168 268h237l-211 -268h-194z" />
<glyph unicode="&#xd4;" horiz-adv-x="1626" d="M88 717q0 217 92 386t257 262t376 93t376 -93t257 -262t92 -386q0 -164 -53.5 -302.5t-149 -235.5t-230 -151.5t-292.5 -54.5t-292.5 54.5t-230 151.5t-149 235.5t-53.5 302.5zM319 717q0 -237 137.5 -383t356.5 -146q218 0 356 146.5t138 382.5q0 235 -138 381.5 t-356 146.5q-219 0 -356.5 -146t-137.5 -382zM485 1511l199 250h260l197 -250h-183l-145 150l-145 -150h-183z" />
<glyph unicode="&#xd5;" horiz-adv-x="1626" d="M88 717q0 217 92 386t257 262t376 93t376 -93t257 -262t92 -386q0 -164 -53.5 -302.5t-149 -235.5t-230 -151.5t-292.5 -54.5t-292.5 54.5t-230 151.5t-149 235.5t-53.5 302.5zM319 717q0 -237 137.5 -383t356.5 -146q218 0 356 146.5t138 382.5q0 235 -138 381.5 t-356 146.5q-219 0 -356.5 -146t-137.5 -382zM471 1509q0 118 57.5 193.5t151.5 75.5q44 0 80.5 -17t53.5 -32.5t42 -45.5q21 -25 29.5 -34t28 -20t42.5 -11q40 0 60 39.5t20 105.5h115q0 -119 -55.5 -194.5t-151.5 -75.5q-45 0 -81 16t-54 33t-39 45q-20 24 -29.5 34 t-29.5 21t-43 11q-40 0 -61 -40.5t-21 -103.5h-115z" />
<glyph unicode="&#xd6;" horiz-adv-x="1626" d="M88 717q0 217 92 386t257 262t376 93t376 -93t257 -262t92 -386q0 -164 -53.5 -302.5t-149 -235.5t-230 -151.5t-292.5 -54.5t-292.5 54.5t-230 151.5t-149 235.5t-53.5 302.5zM319 717q0 -237 137.5 -383t356.5 -146q218 0 356 146.5t138 382.5q0 235 -138 381.5 t-356 146.5q-219 0 -356.5 -146t-137.5 -382zM479 1661q0 57 41 97t98 40t98.5 -40t41.5 -97t-41.5 -98t-98.5 -41t-98 41t-41 98zM868 1661q0 57 41.5 97t98.5 40t98 -40t41 -97t-41 -98t-98 -41t-98.5 41t-41.5 98z" />
<glyph unicode="&#xd7;" horiz-adv-x="1032" d="M111 223l286 285l-286 285l120 118l285 -282l285 282l121 -118l-285 -285l285 -285l-121 -121l-285 285l-285 -285z" />
<glyph unicode="&#xd8;" horiz-adv-x="1626" d="M88 717q0 217 92 386t257 262t376 93q213 0 383 -98l125 178l90 -55l-127 -183q121 -99 187.5 -249t66.5 -334q0 -164 -53.5 -302.5t-149 -235.5t-230 -151.5t-292.5 -54.5q-214 0 -385 99l-125 -178l-90 55l129 184q-122 100 -188 249.5t-66 334.5zM319 717 q0 -252 152 -398l598 859q-112 67 -256 67q-219 0 -356.5 -146t-137.5 -382zM555 256q117 -68 258 -68q218 0 356 146.5t138 382.5q0 246 -154 397z" />
<glyph unicode="&#xd9;" horiz-adv-x="1374" d="M133 500v932h234v-904q0 -168 87.5 -256t233.5 -88q145 0 233.5 88t88.5 256v904h231v-932q0 -169 -73 -290t-196 -179t-284 -58t-284.5 58t-197 179t-73.5 290zM377 1761h237l168 -268h-194z" />
<glyph unicode="&#xda;" horiz-adv-x="1374" d="M133 500v932h234v-904q0 -168 87.5 -256t233.5 -88q145 0 233.5 88t88.5 256v904h231v-932q0 -169 -73 -290t-196 -179t-284 -58t-284.5 58t-197 179t-73.5 290zM590 1493l168 268h237l-211 -268h-194z" />
<glyph unicode="&#xdb;" horiz-adv-x="1374" d="M133 500v932h234v-904q0 -168 87.5 -256t233.5 -88q145 0 233.5 88t88.5 256v904h231v-932q0 -169 -73 -290t-196 -179t-284 -58t-284.5 58t-197 179t-73.5 290zM358 1511l199 250h260l197 -250h-183l-145 150l-145 -150h-183z" />
<glyph unicode="&#xdc;" horiz-adv-x="1374" d="M133 500v932h234v-904q0 -168 87.5 -256t233.5 -88q145 0 233.5 88t88.5 256v904h231v-932q0 -169 -73 -290t-196 -179t-284 -58t-284.5 58t-197 179t-73.5 290zM352 1661q0 57 41.5 97t98.5 40t98 -40t41 -97t-41 -98t-98 -41t-98.5 41t-41.5 98zM741 1661q0 57 41.5 97 t98.5 40t98 -40t41 -97t-41 -98t-98 -41t-98.5 41t-41.5 98z" />
<glyph unicode="&#xdd;" horiz-adv-x="1232" d="M12 1432h256l348 -558l347 558h256l-486 -756v-676h-233v672zM518 1493l168 268h238l-211 -268h-195z" />
<glyph unicode="&#xde;" horiz-adv-x="1214" d="M150 0v1432h231v-195h225q275 0 402 -104q139 -111 139 -340q0 -138 -53 -245t-156 -163q-111 -59 -332 -59h-225v-326h-231zM381 520h194q175 0 238 45q102 59 102 215q0 140 -88 209q-72 51 -252 51h-194v-520z" />
<glyph unicode="&#xdf;" horiz-adv-x="1378" d="M135 0v956q0 161 40.5 278t118.5 187t182.5 102.5t240.5 32.5q222 0 347.5 -100.5t125.5 -269.5q0 -41 -9.5 -76.5t-22.5 -61t-38.5 -50t-44 -38.5t-53 -31.5t-52.5 -25t-55 -22.5q-41 -17 -62.5 -28t-47.5 -28.5t-37.5 -38t-11.5 -45.5q0 -18 5 -32t20 -25.5t26 -18.5 t40 -16t43.5 -12.5t53.5 -13.5q70 -16 119 -31t98.5 -40.5t79 -57t48 -79.5t18.5 -110q0 -107 -55.5 -182t-144 -109t-200.5 -34q-181 0 -302.5 73.5t-147.5 212.5l186 51q45 -180 250 -180q89 0 144 37.5t55 108.5q0 28 -8.5 51t-28 39.5t-36.5 28t-51.5 22t-53.5 15.5 t-60 14q-65 14 -110 27.5t-88.5 35t-69 48.5t-41 66.5t-15.5 90.5q0 37 9 70t20.5 56t36 47t40.5 37t50.5 31.5t49.5 25.5t52 24q49 24 74 38t57 38.5t46 53t14 64.5q0 81 -67.5 126.5t-194.5 45.5q-90 0 -155 -24t-104 -62.5t-62 -100t-30.5 -124t-7.5 -145.5v-922h-223z " />
<glyph unicode="&#xe0;" horiz-adv-x="1103" d="M92 252q0 75 29 132t85 94.5t121.5 61t153.5 40.5l183 34q84 16 84 74q0 90 -53.5 136t-147.5 46q-198 0 -219 -188l-224 31q26 157 140 238t307 81q204 0 312 -95t108 -275v-390q0 -52 16.5 -74t56.5 -22h37v-176h-104q-82 0 -130 35.5t-48 107.5v23h-11 q-53 -89 -151 -137.5t-231 -48.5q-137 0 -225.5 68.5t-88.5 203.5zM223 1432h240l184 -295h-194zM315 272q0 -57 40 -87.5t112 -30.5q130 0 211.5 89t81.5 238l-268 -61q-177 -31 -177 -148z" />
<glyph unicode="&#xe1;" horiz-adv-x="1103" d="M92 252q0 75 29 132t85 94.5t121.5 61t153.5 40.5l183 34q84 16 84 74q0 90 -53.5 136t-147.5 46q-198 0 -219 -188l-224 31q26 157 140 238t307 81q204 0 312 -95t108 -275v-390q0 -52 16.5 -74t56.5 -22h37v-176h-104q-82 0 -130 35.5t-48 107.5v23h-11 q-53 -89 -151 -137.5t-231 -48.5q-137 0 -225.5 68.5t-88.5 203.5zM315 272q0 -57 40 -87.5t112 -30.5q130 0 211.5 89t81.5 238l-268 -61q-177 -31 -177 -148zM438 1137l187 295h237l-229 -295h-195z" />
<glyph unicode="&#xe2;" horiz-adv-x="1103" d="M92 252q0 75 29 132t85 94.5t121.5 61t153.5 40.5l183 34q84 16 84 74q0 90 -53.5 136t-147.5 46q-198 0 -219 -188l-224 31q26 157 140 238t307 81q204 0 312 -95t108 -275v-390q0 -52 16.5 -74t56.5 -22h37v-176h-104q-82 0 -130 35.5t-48 107.5v23h-11 q-53 -89 -151 -137.5t-231 -48.5q-137 0 -225.5 68.5t-88.5 203.5zM219 1137l197 295h254l196 -295h-184l-139 186l-142 -186h-182zM315 272q0 -57 40 -87.5t112 -30.5q130 0 211.5 89t81.5 238l-268 -61q-177 -31 -177 -148z" />
<glyph unicode="&#xe3;" horiz-adv-x="1103" d="M92 252q0 75 29 132t85 94.5t121.5 61t153.5 40.5l183 34q84 16 84 74q0 90 -53.5 136t-147.5 46q-198 0 -219 -188l-224 31q26 157 140 238t307 81q204 0 312 -95t108 -275v-390q0 -52 16.5 -74t56.5 -22h37v-176h-104q-82 0 -130 35.5t-48 107.5v23h-11 q-53 -89 -151 -137.5t-231 -48.5q-137 0 -225.5 68.5t-88.5 203.5zM203 1143q0 118 57.5 194t151.5 76q44 0 80 -16.5t54 -33.5t42 -46q20 -24 29 -33.5t28.5 -20t42.5 -10.5q40 0 60 39.5t20 104.5h115q0 -118 -55.5 -193.5t-151.5 -75.5q-44 0 -81 16.5t-54 33t-39 43.5 q-26 33 -48 49t-55 16q-40 0 -61 -40t-21 -103h-114zM315 272q0 -57 40 -87.5t112 -30.5q130 0 211.5 89t81.5 238l-268 -61q-177 -31 -177 -148z" />
<glyph unicode="&#xe4;" horiz-adv-x="1103" d="M92 252q0 75 29 132t85 94.5t121.5 61t153.5 40.5l183 34q84 16 84 74q0 90 -53.5 136t-147.5 46q-198 0 -219 -188l-224 31q26 157 140 238t307 81q204 0 312 -95t108 -275v-390q0 -52 16.5 -74t56.5 -22h37v-176h-104q-82 0 -130 35.5t-48 107.5v23h-11 q-53 -89 -151 -137.5t-231 -48.5q-137 0 -225.5 68.5t-88.5 203.5zM209 1352q0 57 41 97t98 40t98 -40t41 -97t-41 -98.5t-98 -41.5t-98 41.5t-41 98.5zM315 272q0 -57 40 -87.5t112 -30.5q130 0 211.5 89t81.5 238l-268 -61q-177 -31 -177 -148zM598 1352q0 57 41 97t98 40 t98.5 -40t41.5 -97t-41.5 -98.5t-98.5 -41.5t-98 41.5t-41 98.5z" />
<glyph unicode="&#xe5;" horiz-adv-x="1103" d="M92 252q0 75 29 132t85 94.5t121.5 61t153.5 40.5l183 34q84 16 84 74q0 90 -53.5 136t-147.5 46q-198 0 -219 -188l-224 31q26 157 140 238t307 81q204 0 312 -95t108 -275v-390q0 -52 16.5 -74t56.5 -22h37v-176h-104q-82 0 -130 35.5t-48 107.5v23h-11 q-53 -89 -151 -137.5t-231 -48.5q-137 0 -225.5 68.5t-88.5 203.5zM299 1370q0 99 68.5 168.5t175.5 69.5q105 0 173 -69.5t68 -168.5q0 -100 -67.5 -168.5t-173.5 -68.5q-107 0 -175.5 68.5t-68.5 168.5zM315 272q0 -57 40 -87.5t112 -30.5q130 0 211.5 89t81.5 238 l-268 -61q-177 -31 -177 -148zM418 1370q0 -54 36 -89.5t89 -35.5t90 36t37 89q0 55 -37 90t-90 35t-89 -35t-36 -90z" />
<glyph unicode="&#xe6;" horiz-adv-x="1855" d="M92 252q0 76 29.5 133t85.5 94.5t121.5 60.5t152.5 40l183 34q86 16 86 76q0 94 -59 141.5t-156 47.5q-208 0 -230 -197l-201 31q28 164 137.5 241.5t309.5 77.5q243 0 338 -137q143 137 373 137q146 0 258 -58t178 -177t67 -285l-2 -51h-805q9 -142 95 -223.5t215 -81.5 q91 0 160 43.5t104 122.5l205 -31q-52 -147 -176.5 -229t-292.5 -82q-148 0 -263.5 56.5t-183.5 160.5q-69 -110 -175 -163.5t-230 -53.5q-146 0 -235 68t-89 204zM311 283q0 -61 44 -95t120 -34q89 0 169.5 53t107.5 158q-12 59 -15 124l-223 -45q-203 -38 -203 -161z M969 631h571q-18 108 -92.5 166.5t-185.5 58.5q-118 0 -194 -56t-99 -169z" />
<glyph unicode="&#xe7;" horiz-adv-x="1185" d="M88 508q0 231 148 377.5t382 146.5q187 0 317 -94.5t169 -263.5l-207 -23q-29 99 -102 152t-179 53q-136 0 -220.5 -97.5t-84.5 -250.5q0 -156 84.5 -254t220.5 -98q106 0 179 53t102 153l207 -22q-36 -158 -154.5 -252.5t-287.5 -105.5l-70 -119q27 8 57 8 q79 0 126.5 -47t47.5 -123q0 -84 -58 -139.5t-151 -55.5q-87 0 -142.5 32.5t-78.5 88.5l125 39q23 -53 92 -53q40 0 67.5 24t27.5 64t-26.5 62t-66.5 22q-46 0 -75 -29l-109 49l102 181q-199 28 -320.5 170t-121.5 352z" />
<glyph unicode="&#xe8;" horiz-adv-x="1206" d="M90 506q0 240 144.5 383t377.5 143q224 0 364 -136t140 -384l-2 -51h-805q9 -142 94.5 -223.5t214.5 -81.5q92 0 161 43t104 123l204 -31q-51 -147 -176 -229t-293 -82q-240 0 -384 142.5t-144 383.5zM285 1432h239l185 -295h-195zM319 631h572q-17 108 -92 166.5 t-185 58.5q-120 0 -196 -56t-99 -169z" />
<glyph unicode="&#xe9;" horiz-adv-x="1206" d="M90 506q0 240 144.5 383t377.5 143q224 0 364 -136t140 -384l-2 -51h-805q9 -142 94.5 -223.5t214.5 -81.5q92 0 161 43t104 123l204 -31q-51 -147 -176 -229t-293 -82q-240 0 -384 142.5t-144 383.5zM319 631h572q-17 108 -92 166.5t-185 58.5q-120 0 -196 -56t-99 -169 zM500 1137l186 295h238l-230 -295h-194z" />
<glyph unicode="&#xea;" horiz-adv-x="1206" d="M90 506q0 240 144.5 383t377.5 143q224 0 364 -136t140 -384l-2 -51h-805q9 -142 94.5 -223.5t214.5 -81.5q92 0 161 43t104 123l204 -31q-51 -147 -176 -229t-293 -82q-240 0 -384 142.5t-144 383.5zM281 1137l196 295h254l197 -295h-185l-139 186l-141 -186h-182z M319 631h572q-17 108 -92 166.5t-185 58.5q-120 0 -196 -56t-99 -169z" />
<glyph unicode="&#xeb;" horiz-adv-x="1206" d="M90 506q0 240 144.5 383t377.5 143q224 0 364 -136t140 -384l-2 -51h-805q9 -142 94.5 -223.5t214.5 -81.5q92 0 161 43t104 123l204 -31q-51 -147 -176 -229t-293 -82q-240 0 -384 142.5t-144 383.5zM270 1352q0 57 41.5 97t98.5 40t98 -40t41 -97t-41 -98.5t-98 -41.5 t-98.5 41.5t-41.5 98.5zM319 631h572q-17 108 -92 166.5t-185 58.5q-120 0 -196 -56t-99 -169zM659 1352q0 57 41.5 97t98.5 40t98 -40t41 -97t-41 -98.5t-98 -41.5t-98.5 41.5t-41.5 98.5z" />
<glyph unicode="&#xec;" horiz-adv-x="491" d="M-74 1432h240l184 -295h-194zM135 0v1012h223v-1012h-223z" />
<glyph unicode="&#xed;" horiz-adv-x="491" d="M135 0v1012h223v-1012h-223zM141 1137l187 295h237l-229 -295h-195z" />
<glyph unicode="&#xee;" horiz-adv-x="491" d="M-78 1137l197 295h254l196 -295h-184l-139 186l-142 -186h-182zM135 0v1012h223v-1012h-223z" />
<glyph unicode="&#xef;" horiz-adv-x="491" d="M-88 1352q0 57 41 97t98 40t98 -40t41 -97t-41 -98.5t-98 -41.5t-98 41.5t-41 98.5zM135 0v1012h223v-1012h-223zM301 1352q0 57 41 97t98 40t98.5 -40t41.5 -97t-41.5 -98.5t-98.5 -41.5t-98 41.5t-41 98.5z" />
<glyph unicode="&#xf0;" horiz-adv-x="1282" d="M100 508q0 239 150 381.5t391 142.5q25 0 39 -2l-168 217l-268 -67l-21 67l242 62l-174 227h252l131 -172l231 59l19 -69l-203 -51l340 -449q115 -156 115 -346q0 -240 -149 -383t-388 -145q-239 2 -389 145t-150 383zM322 508q0 -155 88 -252.5t229 -97.5 q140 0 227.5 97.5t87.5 252.5q0 151 -87 248.5t-228 97.5t-229 -96.5t-88 -249.5z" />
<glyph unicode="&#xf1;" horiz-adv-x="1185" d="M137 0v1012h223v-125q53 70 135.5 107.5t184.5 37.5q184 0 281.5 -94t97.5 -266v-672h-223v629q0 111 -60 168t-162 57q-104 0 -173.5 -61.5t-80.5 -184.5v-608h-223zM244 1143q0 118 57.5 194t151.5 76q44 0 80 -16.5t54 -33.5t42 -46q20 -24 29 -33.5t28.5 -20 t42.5 -10.5q40 0 60 39.5t20 104.5h115q0 -118 -55.5 -193.5t-151.5 -75.5q-44 0 -81 16.5t-54 33t-39 43.5q-26 33 -48 49t-55 16q-40 0 -61 -40t-21 -103h-114z" />
<glyph unicode="&#xf2;" horiz-adv-x="1253" d="M88 508q0 237 150 380.5t389 143.5q238 0 387 -143.5t149 -380.5q0 -240 -148.5 -383t-387.5 -145q-239 2 -389 145t-150 383zM309 1432h240l184 -295h-194zM311 508q0 -155 87.5 -251.5t228.5 -96.5q140 0 227.5 96.5t87.5 251.5q0 152 -88 249t-227 97 q-141 0 -228.5 -96.5t-87.5 -249.5z" />
<glyph unicode="&#xf3;" horiz-adv-x="1253" d="M88 508q0 237 150 380.5t389 143.5q238 0 387 -143.5t149 -380.5q0 -240 -148.5 -383t-387.5 -145q-239 2 -389 145t-150 383zM311 508q0 -155 87.5 -251.5t228.5 -96.5q140 0 227.5 96.5t87.5 251.5q0 152 -88 249t-227 97q-141 0 -228.5 -96.5t-87.5 -249.5zM524 1137 l187 295h237l-229 -295h-195z" />
<glyph unicode="&#xf4;" horiz-adv-x="1253" d="M88 508q0 237 150 380.5t389 143.5q238 0 387 -143.5t149 -380.5q0 -240 -148.5 -383t-387.5 -145q-239 2 -389 145t-150 383zM305 1137l197 295h254l196 -295h-184l-139 186l-142 -186h-182zM311 508q0 -155 87.5 -251.5t228.5 -96.5q140 0 227.5 96.5t87.5 251.5 q0 152 -88 249t-227 97q-141 0 -228.5 -96.5t-87.5 -249.5z" />
<glyph unicode="&#xf5;" horiz-adv-x="1253" d="M88 508q0 237 150 380.5t389 143.5q238 0 387 -143.5t149 -380.5q0 -240 -148.5 -383t-387.5 -145q-239 2 -389 145t-150 383zM287 1143q0 118 57.5 194t151.5 76q44 0 80 -16.5t54 -33.5t42 -46q20 -24 29 -33.5t28.5 -20t42.5 -10.5q40 0 60 39.5t20 104.5h115 q0 -118 -55.5 -193.5t-151.5 -75.5q-44 0 -81 16.5t-54 33t-39 43.5q-26 33 -48 49t-55 16q-40 0 -61 -40t-21 -103h-114zM311 508q0 -155 87.5 -251.5t228.5 -96.5q140 0 227.5 96.5t87.5 251.5q0 152 -88 249t-227 97q-141 0 -228.5 -96.5t-87.5 -249.5z" />
<glyph unicode="&#xf6;" horiz-adv-x="1253" d="M88 508q0 237 150 380.5t389 143.5q238 0 387 -143.5t149 -380.5q0 -240 -148.5 -383t-387.5 -145q-239 2 -389 145t-150 383zM295 1352q0 57 41 97t98 40t98 -40t41 -97t-41 -98.5t-98 -41.5t-98 41.5t-41 98.5zM311 508q0 -155 87.5 -251.5t228.5 -96.5 q140 0 227.5 96.5t87.5 251.5q0 152 -88 249t-227 97q-141 0 -228.5 -96.5t-87.5 -249.5zM684 1352q0 57 41 97t98 40t98.5 -40t41.5 -97t-41.5 -98.5t-98.5 -41.5t-98 41.5t-41 98.5z" />
<glyph unicode="&#xf7;" horiz-adv-x="1245" d="M111 422v170h1024v-170h-1024zM492 123q0 51 37 88t87 37q51 0 88 -37t37 -88q0 -52 -37 -88.5t-88 -36.5q-50 0 -87 36.5t-37 88.5zM492 891q0 50 37.5 87.5t86.5 37.5q51 0 88 -37.5t37 -87.5q0 -52 -37 -88.5t-88 -36.5q-50 0 -87 36.5t-37 88.5z" />
<glyph unicode="&#xf8;" horiz-adv-x="1253" d="M88 508q0 237 150 380.5t389 143.5q147 0 264 -57l96 139l90 -55l-98 -139q184 -145 184 -412q0 -240 -148.5 -383t-387.5 -145q-145 0 -262 57l-97 -137l-90 55l96 137q-89 70 -137.5 176.5t-48.5 239.5zM311 508q0 -152 82 -246l387 555q-72 37 -153 37 q-141 0 -228.5 -96.5t-87.5 -249.5zM475 197q64 -37 152 -37q140 0 227.5 96.5t87.5 251.5q0 148 -82 242z" />
<glyph unicode="&#xf9;" horiz-adv-x="1185" d="M125 340v672h223v-629q0 -110 59.5 -166.5t161.5 -56.5q113 0 184 71t72 215v566h224v-1012h-224v127q-53 -70 -135.5 -108.5t-185.5 -38.5q-184 0 -281.5 94t-97.5 266zM266 1432h240l184 -295h-194z" />
<glyph unicode="&#xfa;" horiz-adv-x="1185" d="M125 340v672h223v-629q0 -110 59.5 -166.5t161.5 -56.5q113 0 184 71t72 215v566h224v-1012h-224v127q-53 -70 -135.5 -108.5t-185.5 -38.5q-184 0 -281.5 94t-97.5 266zM481 1137l187 295h237l-229 -295h-195z" />
<glyph unicode="&#xfb;" horiz-adv-x="1185" d="M125 340v672h223v-629q0 -110 59.5 -166.5t161.5 -56.5q113 0 184 71t72 215v566h224v-1012h-224v127q-53 -70 -135.5 -108.5t-185.5 -38.5q-184 0 -281.5 94t-97.5 266zM262 1137l197 295h254l196 -295h-184l-139 186l-142 -186h-182z" />
<glyph unicode="&#xfc;" horiz-adv-x="1185" d="M125 340v672h223v-629q0 -110 59.5 -166.5t161.5 -56.5q113 0 184 71t72 215v566h224v-1012h-224v127q-53 -70 -135.5 -108.5t-185.5 -38.5q-184 0 -281.5 94t-97.5 266zM252 1352q0 57 41 97t98 40t98 -40t41 -97t-41 -98.5t-98 -41.5t-98 41.5t-41 98.5zM641 1352 q0 57 41 97t98 40t98.5 -40t41.5 -97t-41.5 -98.5t-98.5 -41.5t-98 41.5t-41 98.5z" />
<glyph unicode="&#xfd;" horiz-adv-x="1138" d="M39 1012h242l286 -748l289 748h244l-637 -1510h-244l234 537zM471 1137l186 295h238l-229 -295h-195z" />
<glyph unicode="&#xfe;" horiz-adv-x="1286" d="M135 -498v2034h223v-682q47 84 139 131t208 47q211 0 350 -144.5t139 -383.5q0 -238 -139.5 -383.5t-349.5 -145.5q-116 0 -208 47.5t-139 131.5v-652h-223zM350 504q0 -153 88.5 -247.5t223.5 -94.5t222 94.5t87 247.5t-87 247.5t-222 94.5t-223.5 -94.5t-88.5 -247.5z " />
<glyph unicode="&#xff;" horiz-adv-x="1138" d="M39 1012h242l286 -748l289 748h244l-637 -1510h-244l234 537zM242 1352q0 57 41 97t98 40t98 -40t41 -97t-41 -98.5t-98 -41.5t-98 41.5t-41 98.5zM631 1352q0 57 41 97t98 40t98 -40t41 -97t-41 -98.5t-98 -41.5t-98 41.5t-41 98.5z" />
<glyph unicode="&#x152;" horiz-adv-x="1927" d="M88 717q0 395 240 577q186 138 534 138h975v-205h-575v-410h512v-203h-512v-409h575v-205h-975q-351 0 -534 139q-240 179 -240 578zM319 717q0 -288 170 -414q128 -98 373 -98h166v1022h-166q-244 0 -373 -99q-170 -126 -170 -411z" />
<glyph unicode="&#x153;" horiz-adv-x="2062" d="M88 508q0 237 150 380.5t389 143.5q135 0 245 -48.5t181 -137.5q69 90 175.5 138t239.5 48q224 0 364 -136t140 -384l-2 -51h-805q9 -142 95 -223.5t215 -81.5q92 0 160.5 43t103.5 123l205 -31q-51 -147 -176 -229t-293 -82q-278 0 -422 186q-72 -89 -181.5 -136.5 t-244.5 -49.5q-239 2 -389 145t-150 383zM311 508q0 -155 87.5 -251.5t228.5 -96.5q140 0 227.5 96.5t87.5 251.5q0 152 -88 249t-227 97q-141 0 -228.5 -96.5t-87.5 -249.5zM1176 631h571q-18 108 -92.5 166.5t-184.5 58.5q-120 0 -195.5 -56t-98.5 -169z" />
<glyph unicode="&#x178;" horiz-adv-x="1232" d="M12 1432h256l348 -558l347 558h256l-486 -756v-676h-233v672zM283 1661q0 57 41 97t98 40t98 -40t41 -97t-41 -98t-98 -41t-98 41t-41 98zM672 1661q0 57 41 97t98 40t98 -40t41 -97t-41 -98t-98 -41t-98 41t-41 98z" />
<glyph unicode="&#x2c6;" horiz-adv-x="946" d="M150 1137l196 295h254l197 -295h-185l-139 186l-141 -186h-182z" />
<glyph unicode="&#x2dc;" horiz-adv-x="978" d="M150 1143q0 119 57 194.5t151 75.5q44 0 80.5 -16.5t54.5 -33.5t42 -46q20 -24 29 -33.5t28.5 -20t42.5 -10.5q40 0 60 39.5t20 104.5h114q0 -119 -55 -194t-151 -75q-44 0 -81 16.5t-54 33t-39 43.5q-26 33 -48 49t-55 16q-40 0 -61 -40t-21 -103h-114z" />
<glyph unicode="&#x2000;" horiz-adv-x="990" />
<glyph unicode="&#x2001;" horiz-adv-x="1980" />
<glyph unicode="&#x2002;" horiz-adv-x="990" />
<glyph unicode="&#x2003;" horiz-adv-x="1980" />
<glyph unicode="&#x2004;" horiz-adv-x="660" />
<glyph unicode="&#x2005;" horiz-adv-x="495" />
<glyph unicode="&#x2006;" horiz-adv-x="330" />
<glyph unicode="&#x2007;" horiz-adv-x="330" />
<glyph unicode="&#x2008;" horiz-adv-x="247" />
<glyph unicode="&#x2009;" horiz-adv-x="396" />
<glyph unicode="&#x200a;" horiz-adv-x="110" />
<glyph unicode="&#x2010;" horiz-adv-x="798" d="M41 422v170h717v-170h-717z" />
<glyph unicode="&#x2011;" horiz-adv-x="798" d="M41 422v170h717v-170h-717z" />
<glyph unicode="&#x2012;" horiz-adv-x="798" d="M41 422v170h717v-170h-717z" />
<glyph unicode="&#x2013;" horiz-adv-x="1024" d="M0 422v170h1024v-170h-1024z" />
<glyph unicode="&#x2014;" horiz-adv-x="2048" d="M0 422v170h2048v-170h-2048z" />
<glyph unicode="&#x2018;" horiz-adv-x="569" d="M100 791l189 641h164l-125 -641h-228z" />
<glyph unicode="&#x2019;" horiz-adv-x="569" d="M117 791l125 641h227l-188 -641h-164z" />
<glyph unicode="&#x201a;" horiz-adv-x="626" d="M145 -367l125 643h228l-189 -643h-164z" />
<glyph unicode="&#x201c;" horiz-adv-x="1009" d="M100 791l189 641h164l-125 -641h-228zM541 791l188 641h162l-123 -641h-227z" />
<glyph unicode="&#x201d;" horiz-adv-x="1009" d="M117 791l125 641h227l-188 -641h-164zM557 791l125 641h227l-188 -641h-164z" />
<glyph unicode="&#x201e;" horiz-adv-x="1060" d="M145 -367l125 643h228l-189 -643h-164zM580 -367l125 643h227l-189 -643h-163z" />
<glyph unicode="&#x2022;" horiz-adv-x="1011" d="M141 506q0 146 109.5 255t255.5 109q145 0 254.5 -109t109.5 -255q0 -152 -108.5 -257.5t-255.5 -105.5q-148 0 -256.5 105.5t-108.5 257.5z" />
<glyph unicode="&#x2026;" horiz-adv-x="1736" d="M178 117q0 57 40.5 98t96.5 41q57 0 98.5 -41t41.5 -98t-41.5 -97t-98.5 -40q-56 0 -96.5 40t-40.5 97zM733 117q0 57 40.5 98t96.5 41q57 0 98.5 -41t41.5 -98t-41.5 -97t-98.5 -40q-56 0 -96.5 40t-40.5 97zM1280 117q0 57 40.5 98t96.5 41q57 0 98 -41t41 -98t-41 -97 t-98 -40q-56 0 -96.5 40t-40.5 97z" />
<glyph unicode="&#x202f;" horiz-adv-x="396" />
<glyph unicode="&#x2039;" horiz-adv-x="622" d="M61 508l312 377h184l-311 -377l311 -377h-184z" />
<glyph unicode="&#x203a;" horiz-adv-x="622" d="M66 131l311 377l-311 377h184l311 -377l-311 -377h-184z" />
<glyph unicode="&#x205f;" horiz-adv-x="495" />
<glyph unicode="&#x20ac;" horiz-adv-x="1560" d="M131 508v123h133q-4 58 -4 86t4 86h-133v123h150q53 249 225.5 387.5t417.5 138.5q165 0 299 -68t221 -188l-197 -123q-108 172 -323 172q-152 0 -259.5 -81t-150.5 -238h463v-123h-483q-5 -68 -5 -86q0 -19 5 -86h483v-123h-463q43 -157 150.5 -237.5t259.5 -80.5 q209 0 323 170l197 -122q-87 -120 -221 -189t-299 -69q-244 0 -417 139.5t-226 388.5h-150z" />
<glyph unicode="&#x2122;" horiz-adv-x="1400" d="M29 1321v111h475v-111h-174v-588h-125v588h-176zM549 733l59 699h176l179 -463l178 463h174l57 -699h-125l-45 541l-201 -541h-79l-199 541l-47 -541h-127z" />
<glyph unicode="&#x25fc;" horiz-adv-x="1013" d="M0 0v1014h1014v-1014h-1014z" />
<glyph unicode="&#xfb03;" horiz-adv-x="1916" d="M45 840v172h207v145q0 201 120.5 300t327.5 99q201 0 308 -116q116 116 346 116q170 0 276 -79t144 -220l-218 -57q-19 90 -69.5 133t-143.5 43q-98 0 -156.5 -52t-58.5 -167v-145h238v-172h-238v-840h-223v840h-430v-840h-223v840h-207zM475 1012h430v145q0 55 8 96 q-65 123 -225 123q-213 0 -213 -219v-145zM1559 0v1012h223v-1012h-223z" />
<glyph unicode="&#xfb04;" horiz-adv-x="1918" d="M45 840v172h207v145q0 201 120.5 300t327.5 99q203 0 308 -114q114 114 335 114q97 0 176 -23.5t138.5 -71t92 -125t32.5 -179.5v-1157h-221v1145q0 231 -218 231q-96 0 -155.5 -55t-59.5 -164v-145h238v-172h-238v-840h-223v840h-430v-840h-223v840h-207zM475 1012h430 v145q0 55 8 96q-65 123 -225 123q-213 0 -213 -219v-145z" />
</font>
</defs>
</svg>
